<?xml version="1.0" encoding="utf-8"?>
<!DOCTYPE svg PUBLIC "-//W3C//DTD SVG 20010904//EN" "http://www.w3.org/TR/2001/REC-SVG-20010904/DTD/svg10.dtd">
<svg xmlns="http://www.w3.org/2000/svg" xml:space="preserve" xmlns:xlink="http://www.w3.org/1999/xlink" width="990" height="990" viewBox="0 0 990 990">
<defs>
<mask id="qrmask"><g fill="#ffffff">
<g transform="translate(220,44) scale(3.6666666666667)"><rect width="6" height="6"/></g>
<g transform="translate(264,44) scale(3.6666666666667)"><rect width="6" height="6"/></g>
<g transform="translate(286,44) scale(3.6666666666667)"><rect width="6" height="6"/></g>
<g transform="translate(462,44) scale(3.6666666666667)"><rect width="6" height="6"/></g>
<g transform="translate(484,44) scale(3.6666666666667)"><rect width="6" height="6"/></g>
<g transform="translate(506,44) scale(3.6666666666667)"><rect width="6" height="6"/></g>
<g transform="translate(594,44) scale(3.6666666666667)"><rect width="6" height="6"/></g>
<g transform="translate(638,44) scale(3.6666666666667)"><rect width="6" height="6"/></g>
<g transform="translate(660,44) scale(3.6666666666667)"><rect width="6" height="6"/></g>
<g transform="translate(682,44) scale(3.6666666666667)"><rect width="6" height="6"/></g>
<g transform="translate(748,44) scale(3.6666666666667)"><rect width="6" height="6"/></g>
<g transform="translate(220,66) scale(3.6666666666667)"><rect width="6" height="6"/></g>
<g transform="translate(242,66) scale(3.6666666666667)"><rect width="6" height="6"/></g>
<g transform="translate(264,66) scale(3.6666666666667)"><rect width="6" height="6"/></g>
<g transform="translate(352,66) scale(3.6666666666667)"><rect width="6" height="6"/></g>
<g transform="translate(374,66) scale(3.6666666666667)"><rect width="6" height="6"/></g>
<g transform="translate(396,66) scale(3.6666666666667)"><rect width="6" height="6"/></g>
<g transform="translate(440,66) scale(3.6666666666667)"><rect width="6" height="6"/></g>
<g transform="translate(462,66) scale(3.6666666666667)"><rect width="6" height="6"/></g>
<g transform="translate(484,66) scale(3.6666666666667)"><rect width="6" height="6"/></g>
<g transform="translate(572,66) scale(3.6666666666667)"><rect width="6" height="6"/></g>
<g transform="translate(594,66) scale(3.6666666666667)"><rect width="6" height="6"/></g>
<g transform="translate(616,66) scale(3.6666666666667)"><rect width="6" height="6"/></g>
<g transform="translate(638,66) scale(3.6666666666667)"><rect width="6" height="6"/></g>
<g transform="translate(682,66) scale(3.6666666666667)"><rect width="6" height="6"/></g>
<g transform="translate(704,66) scale(3.6666666666667)"><rect width="6" height="6"/></g>
<g transform="translate(220,88) scale(3.6666666666667)"><rect width="6" height="6"/></g>
<g transform="translate(242,88) scale(3.6666666666667)"><rect width="6" height="6"/></g>
<g transform="translate(264,88) scale(3.6666666666667)"><rect width="6" height="6"/></g>
<g transform="translate(330,88) scale(3.6666666666667)"><rect width="6" height="6"/></g>
<g transform="translate(374,88) scale(3.6666666666667)"><rect width="6" height="6"/></g>
<g transform="translate(396,88) scale(3.6666666666667)"><rect width="6" height="6"/></g>
<g transform="translate(418,88) scale(3.6666666666667)"><rect width="6" height="6"/></g>
<g transform="translate(484,88) scale(3.6666666666667)"><rect width="6" height="6"/></g>
<g transform="translate(506,88) scale(3.6666666666667)"><rect width="6" height="6"/></g>
<g transform="translate(528,88) scale(3.6666666666667)"><rect width="6" height="6"/></g>
<g transform="translate(550,88) scale(3.6666666666667)"><rect width="6" height="6"/></g>
<g transform="translate(594,88) scale(3.6666666666667)"><rect width="6" height="6"/></g>
<g transform="translate(660,88) scale(3.6666666666667)"><rect width="6" height="6"/></g>
<g transform="translate(704,88) scale(3.6666666666667)"><rect width="6" height="6"/></g>
<g transform="translate(726,88) scale(3.6666666666667)"><rect width="6" height="6"/></g>
<g transform="translate(242,110) scale(3.6666666666667)"><rect width="6" height="6"/></g>
<g transform="translate(264,110) scale(3.6666666666667)"><rect width="6" height="6"/></g>
<g transform="translate(286,110) scale(3.6666666666667)"><rect width="6" height="6"/></g>
<g transform="translate(308,110) scale(3.6666666666667)"><rect width="6" height="6"/></g>
<g transform="translate(374,110) scale(3.6666666666667)"><rect width="6" height="6"/></g>
<g transform="translate(418,110) scale(3.6666666666667)"><rect width="6" height="6"/></g>
<g transform="translate(440,110) scale(3.6666666666667)"><rect width="6" height="6"/></g>
<g transform="translate(484,110) scale(3.6666666666667)"><rect width="6" height="6"/></g>
<g transform="translate(528,110) scale(3.6666666666667)"><rect width="6" height="6"/></g>
<g transform="translate(572,110) scale(3.6666666666667)"><rect width="6" height="6"/></g>
<g transform="translate(616,110) scale(3.6666666666667)"><rect width="6" height="6"/></g>
<g transform="translate(682,110) scale(3.6666666666667)"><rect width="6" height="6"/></g>
<g transform="translate(704,110) scale(3.6666666666667)"><rect width="6" height="6"/></g>
<g transform="translate(242,132) scale(3.6666666666667)"><rect width="6" height="6"/></g>
<g transform="translate(264,132) scale(3.6666666666667)"><rect width="6" height="6"/></g>
<g transform="translate(308,132) scale(3.6666666666667)"><rect width="6" height="6"/></g>
<g transform="translate(330,132) scale(3.6666666666667)"><rect width="6" height="6"/></g>
<g transform="translate(352,132) scale(3.6666666666667)"><rect width="6" height="6"/></g>
<g transform="translate(396,132) scale(3.6666666666667)"><rect width="6" height="6"/></g>
<g transform="translate(440,132) scale(3.6666666666667)"><rect width="6" height="6"/></g>
<g transform="translate(462,132) scale(3.6666666666667)"><rect width="6" height="6"/></g>
<g transform="translate(528,132) scale(3.6666666666667)"><rect width="6" height="6"/></g>
<g transform="translate(550,132) scale(3.6666666666667)"><rect width="6" height="6"/></g>
<g transform="translate(572,132) scale(3.6666666666667)"><rect width="6" height="6"/></g>
<g transform="translate(594,132) scale(3.6666666666667)"><rect width="6" height="6"/></g>
<g transform="translate(660,132) scale(3.6666666666667)"><rect width="6" height="6"/></g>
<g transform="translate(704,132) scale(3.6666666666667)"><rect width="6" height="6"/></g>
<g transform="translate(726,132) scale(3.6666666666667)"><rect width="6" height="6"/></g>
<g transform="translate(748,132) scale(3.6666666666667)"><rect width="6" height="6"/></g>
<g transform="translate(220,154) scale(3.6666666666667)"><rect width="6" height="6"/></g>
<g transform="translate(264,154) scale(3.6666666666667)"><rect width="6" height="6"/></g>
<g transform="translate(308,154) scale(3.6666666666667)"><rect width="6" height="6"/></g>
<g transform="translate(352,154) scale(3.6666666666667)"><rect width="6" height="6"/></g>
<g transform="translate(440,154) scale(3.6666666666667)"><rect width="6" height="6"/></g>
<g transform="translate(484,154) scale(3.6666666666667)"><rect width="6" height="6"/></g>
<g transform="translate(506,154) scale(3.6666666666667)"><rect width="6" height="6"/></g>
<g transform="translate(528,154) scale(3.6666666666667)"><rect width="6" height="6"/></g>
<g transform="translate(550,154) scale(3.6666666666667)"><rect width="6" height="6"/></g>
<g transform="translate(616,154) scale(3.6666666666667)"><rect width="6" height="6"/></g>
<g transform="translate(638,154) scale(3.6666666666667)"><rect width="6" height="6"/></g>
<g transform="translate(660,154) scale(3.6666666666667)"><rect width="6" height="6"/></g>
<g transform="translate(748,154) scale(3.6666666666667)"><rect width="6" height="6"/></g>
<g transform="translate(220,176) scale(3.6666666666667)"><rect width="6" height="6"/></g>
<g transform="translate(264,176) scale(3.6666666666667)"><rect width="6" height="6"/></g>
<g transform="translate(308,176) scale(3.6666666666667)"><rect width="6" height="6"/></g>
<g transform="translate(352,176) scale(3.6666666666667)"><rect width="6" height="6"/></g>
<g transform="translate(396,176) scale(3.6666666666667)"><rect width="6" height="6"/></g>
<g transform="translate(440,176) scale(3.6666666666667)"><rect width="6" height="6"/></g>
<g transform="translate(484,176) scale(3.6666666666667)"><rect width="6" height="6"/></g>
<g transform="translate(528,176) scale(3.6666666666667)"><rect width="6" height="6"/></g>
<g transform="translate(572,176) scale(3.6666666666667)"><rect width="6" height="6"/></g>
<g transform="translate(616,176) scale(3.6666666666667)"><rect width="6" height="6"/></g>
<g transform="translate(660,176) scale(3.6666666666667)"><rect width="6" height="6"/></g>
<g transform="translate(704,176) scale(3.6666666666667)"><rect width="6" height="6"/></g>
<g transform="translate(748,176) scale(3.6666666666667)"><rect width="6" height="6"/></g>
<g transform="translate(220,198) scale(3.6666666666667)"><rect width="6" height="6"/></g>
<g transform="translate(242,198) scale(3.6666666666667)"><rect width="6" height="6"/></g>
<g transform="translate(264,198) scale(3.6666666666667)"><rect width="6" height="6"/></g>
<g transform="translate(308,198) scale(3.6666666666667)"><rect width="6" height="6"/></g>
<g transform="translate(330,198) scale(3.6666666666667)"><rect width="6" height="6"/></g>
<g transform="translate(352,198) scale(3.6666666666667)"><rect width="6" height="6"/></g>
<g transform="translate(374,198) scale(3.6666666666667)"><rect width="6" height="6"/></g>
<g transform="translate(396,198) scale(3.6666666666667)"><rect width="6" height="6"/></g>
<g transform="translate(572,198) scale(3.6666666666667)"><rect width="6" height="6"/></g>
<g transform="translate(616,198) scale(3.6666666666667)"><rect width="6" height="6"/></g>
<g transform="translate(638,198) scale(3.6666666666667)"><rect width="6" height="6"/></g>
<g transform="translate(660,198) scale(3.6666666666667)"><rect width="6" height="6"/></g>
<g transform="translate(88,220) scale(3.6666666666667)"><rect width="6" height="6"/></g>
<g transform="translate(110,220) scale(3.6666666666667)"><rect width="6" height="6"/></g>
<g transform="translate(132,220) scale(3.6666666666667)"><rect width="6" height="6"/></g>
<g transform="translate(176,220) scale(3.6666666666667)"><rect width="6" height="6"/></g>
<g transform="translate(220,220) scale(3.6666666666667)"><rect width="6" height="6"/></g>
<g transform="translate(330,220) scale(3.6666666666667)"><rect width="6" height="6"/></g>
<g transform="translate(352,220) scale(3.6666666666667)"><rect width="6" height="6"/></g>
<g transform="translate(396,220) scale(3.6666666666667)"><rect width="6" height="6"/></g>
<g transform="translate(440,220) scale(3.6666666666667)"><rect width="6" height="6"/></g>
<g transform="translate(550,220) scale(3.6666666666667)"><rect width="6" height="6"/></g>
<g transform="translate(638,220) scale(3.6666666666667)"><rect width="6" height="6"/></g>
<g transform="translate(682,220) scale(3.6666666666667)"><rect width="6" height="6"/></g>
<g transform="translate(770,220) scale(3.6666666666667)"><rect width="6" height="6"/></g>
<g transform="translate(792,220) scale(3.6666666666667)"><rect width="6" height="6"/></g>
<g transform="translate(814,220) scale(3.6666666666667)"><rect width="6" height="6"/></g>
<g transform="translate(880,220) scale(3.6666666666667)"><rect width="6" height="6"/></g>
<g transform="translate(902,220) scale(3.6666666666667)"><rect width="6" height="6"/></g>
<g transform="translate(924,220) scale(3.6666666666667)"><rect width="6" height="6"/></g>
<g transform="translate(44,242) scale(3.6666666666667)"><rect width="6" height="6"/></g>
<g transform="translate(88,242) scale(3.6666666666667)"><rect width="6" height="6"/></g>
<g transform="translate(198,242) scale(3.6666666666667)"><rect width="6" height="6"/></g>
<g transform="translate(220,242) scale(3.6666666666667)"><rect width="6" height="6"/></g>
<g transform="translate(264,242) scale(3.6666666666667)"><rect width="6" height="6"/></g>
<g transform="translate(308,242) scale(3.6666666666667)"><rect width="6" height="6"/></g>
<g transform="translate(330,242) scale(3.6666666666667)"><rect width="6" height="6"/></g>
<g transform="translate(396,242) scale(3.6666666666667)"><rect width="6" height="6"/></g>
<g transform="translate(440,242) scale(3.6666666666667)"><rect width="6" height="6"/></g>
<g transform="translate(462,242) scale(3.6666666666667)"><rect width="6" height="6"/></g>
<g transform="translate(484,242) scale(3.6666666666667)"><rect width="6" height="6"/></g>
<g transform="translate(550,242) scale(3.6666666666667)"><rect width="6" height="6"/></g>
<g transform="translate(616,242) scale(3.6666666666667)"><rect width="6" height="6"/></g>
<g transform="translate(660,242) scale(3.6666666666667)"><rect width="6" height="6"/></g>
<g transform="translate(726,242) scale(3.6666666666667)"><rect width="6" height="6"/></g>
<g transform="translate(748,242) scale(3.6666666666667)"><rect width="6" height="6"/></g>
<g transform="translate(770,242) scale(3.6666666666667)"><rect width="6" height="6"/></g>
<g transform="translate(792,242) scale(3.6666666666667)"><rect width="6" height="6"/></g>
<g transform="translate(814,242) scale(3.6666666666667)"><rect width="6" height="6"/></g>
<g transform="translate(836,242) scale(3.6666666666667)"><rect width="6" height="6"/></g>
<g transform="translate(880,242) scale(3.6666666666667)"><rect width="6" height="6"/></g>
<g transform="translate(924,242) scale(3.6666666666667)"><rect width="6" height="6"/></g>
<g transform="translate(44,264) scale(3.6666666666667)"><rect width="6" height="6"/></g>
<g transform="translate(110,264) scale(3.6666666666667)"><rect width="6" height="6"/></g>
<g transform="translate(132,264) scale(3.6666666666667)"><rect width="6" height="6"/></g>
<g transform="translate(154,264) scale(3.6666666666667)"><rect width="6" height="6"/></g>
<g transform="translate(176,264) scale(3.6666666666667)"><rect width="6" height="6"/></g>
<g transform="translate(286,264) scale(3.6666666666667)"><rect width="6" height="6"/></g>
<g transform="translate(374,264) scale(3.6666666666667)"><rect width="6" height="6"/></g>
<g transform="translate(440,264) scale(3.6666666666667)"><rect width="6" height="6"/></g>
<g transform="translate(506,264) scale(3.6666666666667)"><rect width="6" height="6"/></g>
<g transform="translate(528,264) scale(3.6666666666667)"><rect width="6" height="6"/></g>
<g transform="translate(550,264) scale(3.6666666666667)"><rect width="6" height="6"/></g>
<g transform="translate(594,264) scale(3.6666666666667)"><rect width="6" height="6"/></g>
<g transform="translate(638,264) scale(3.6666666666667)"><rect width="6" height="6"/></g>
<g transform="translate(682,264) scale(3.6666666666667)"><rect width="6" height="6"/></g>
<g transform="translate(704,264) scale(3.6666666666667)"><rect width="6" height="6"/></g>
<g transform="translate(748,264) scale(3.6666666666667)"><rect width="6" height="6"/></g>
<g transform="translate(770,264) scale(3.6666666666667)"><rect width="6" height="6"/></g>
<g transform="translate(836,264) scale(3.6666666666667)"><rect width="6" height="6"/></g>
<g transform="translate(902,264) scale(3.6666666666667)"><rect width="6" height="6"/></g>
<g transform="translate(44,286) scale(3.6666666666667)"><rect width="6" height="6"/></g>
<g transform="translate(66,286) scale(3.6666666666667)"><rect width="6" height="6"/></g>
<g transform="translate(110,286) scale(3.6666666666667)"><rect width="6" height="6"/></g>
<g transform="translate(154,286) scale(3.6666666666667)"><rect width="6" height="6"/></g>
<g transform="translate(198,286) scale(3.6666666666667)"><rect width="6" height="6"/></g>
<g transform="translate(242,286) scale(3.6666666666667)"><rect width="6" height="6"/></g>
<g transform="translate(264,286) scale(3.6666666666667)"><rect width="6" height="6"/></g>
<g transform="translate(352,286) scale(3.6666666666667)"><rect width="6" height="6"/></g>
<g transform="translate(396,286) scale(3.6666666666667)"><rect width="6" height="6"/></g>
<g transform="translate(418,286) scale(3.6666666666667)"><rect width="6" height="6"/></g>
<g transform="translate(462,286) scale(3.6666666666667)"><rect width="6" height="6"/></g>
<g transform="translate(484,286) scale(3.6666666666667)"><rect width="6" height="6"/></g>
<g transform="translate(528,286) scale(3.6666666666667)"><rect width="6" height="6"/></g>
<g transform="translate(550,286) scale(3.6666666666667)"><rect width="6" height="6"/></g>
<g transform="translate(594,286) scale(3.6666666666667)"><rect width="6" height="6"/></g>
<g transform="translate(660,286) scale(3.6666666666667)"><rect width="6" height="6"/></g>
<g transform="translate(726,286) scale(3.6666666666667)"><rect width="6" height="6"/></g>
<g transform="translate(748,286) scale(3.6666666666667)"><rect width="6" height="6"/></g>
<g transform="translate(770,286) scale(3.6666666666667)"><rect width="6" height="6"/></g>
<g transform="translate(792,286) scale(3.6666666666667)"><rect width="6" height="6"/></g>
<g transform="translate(814,286) scale(3.6666666666667)"><rect width="6" height="6"/></g>
<g transform="translate(836,286) scale(3.6666666666667)"><rect width="6" height="6"/></g>
<g transform="translate(858,286) scale(3.6666666666667)"><rect width="6" height="6"/></g>
<g transform="translate(902,286) scale(3.6666666666667)"><rect width="6" height="6"/></g>
<g transform="translate(924,286) scale(3.6666666666667)"><rect width="6" height="6"/></g>
<g transform="translate(44,308) scale(3.6666666666667)"><rect width="6" height="6"/></g>
<g transform="translate(66,308) scale(3.6666666666667)"><rect width="6" height="6"/></g>
<g transform="translate(110,308) scale(3.6666666666667)"><rect width="6" height="6"/></g>
<g transform="translate(154,308) scale(3.6666666666667)"><rect width="6" height="6"/></g>
<g transform="translate(176,308) scale(3.6666666666667)"><rect width="6" height="6"/></g>
<g transform="translate(242,308) scale(3.6666666666667)"><rect width="6" height="6"/></g>
<g transform="translate(264,308) scale(3.6666666666667)"><rect width="6" height="6"/></g>
<g transform="translate(396,308) scale(3.6666666666667)"><rect width="6" height="6"/></g>
<g transform="translate(440,308) scale(3.6666666666667)"><rect width="6" height="6"/></g>
<g transform="translate(462,308) scale(3.6666666666667)"><rect width="6" height="6"/></g>
<g transform="translate(506,308) scale(3.6666666666667)"><rect width="6" height="6"/></g>
<g transform="translate(528,308) scale(3.6666666666667)"><rect width="6" height="6"/></g>
<g transform="translate(550,308) scale(3.6666666666667)"><rect width="6" height="6"/></g>
<g transform="translate(682,308) scale(3.6666666666667)"><rect width="6" height="6"/></g>
<g transform="translate(726,308) scale(3.6666666666667)"><rect width="6" height="6"/></g>
<g transform="translate(770,308) scale(3.6666666666667)"><rect width="6" height="6"/></g>
<g transform="translate(814,308) scale(3.6666666666667)"><rect width="6" height="6"/></g>
<g transform="translate(858,308) scale(3.6666666666667)"><rect width="6" height="6"/></g>
<g transform="translate(880,308) scale(3.6666666666667)"><rect width="6" height="6"/></g>
<g transform="translate(110,330) scale(3.6666666666667)"><rect width="6" height="6"/></g>
<g transform="translate(132,330) scale(3.6666666666667)"><rect width="6" height="6"/></g>
<g transform="translate(154,330) scale(3.6666666666667)"><rect width="6" height="6"/></g>
<g transform="translate(198,330) scale(3.6666666666667)"><rect width="6" height="6"/></g>
<g transform="translate(220,330) scale(3.6666666666667)"><rect width="6" height="6"/></g>
<g transform="translate(242,330) scale(3.6666666666667)"><rect width="6" height="6"/></g>
<g transform="translate(264,330) scale(3.6666666666667)"><rect width="6" height="6"/></g>
<g transform="translate(286,330) scale(3.6666666666667)"><rect width="6" height="6"/></g>
<g transform="translate(308,330) scale(3.6666666666667)"><rect width="6" height="6"/></g>
<g transform="translate(528,330) scale(3.6666666666667)"><rect width="6" height="6"/></g>
<g transform="translate(550,330) scale(3.6666666666667)"><rect width="6" height="6"/></g>
<g transform="translate(572,330) scale(3.6666666666667)"><rect width="6" height="6"/></g>
<g transform="translate(594,330) scale(3.6666666666667)"><rect width="6" height="6"/></g>
<g transform="translate(638,330) scale(3.6666666666667)"><rect width="6" height="6"/></g>
<g transform="translate(748,330) scale(3.6666666666667)"><rect width="6" height="6"/></g>
<g transform="translate(792,330) scale(3.6666666666667)"><rect width="6" height="6"/></g>
<g transform="translate(814,330) scale(3.6666666666667)"><rect width="6" height="6"/></g>
<g transform="translate(836,330) scale(3.6666666666667)"><rect width="6" height="6"/></g>
<g transform="translate(858,330) scale(3.6666666666667)"><rect width="6" height="6"/></g>
<g transform="translate(902,330) scale(3.6666666666667)"><rect width="6" height="6"/></g>
<g transform="translate(924,330) scale(3.6666666666667)"><rect width="6" height="6"/></g>
<g transform="translate(44,352) scale(3.6666666666667)"><rect width="6" height="6"/></g>
<g transform="translate(66,352) scale(3.6666666666667)"><rect width="6" height="6"/></g>
<g transform="translate(110,352) scale(3.6666666666667)"><rect width="6" height="6"/></g>
<g transform="translate(132,352) scale(3.6666666666667)"><rect width="6" height="6"/></g>
<g transform="translate(176,352) scale(3.6666666666667)"><rect width="6" height="6"/></g>
<g transform="translate(198,352) scale(3.6666666666667)"><rect width="6" height="6"/></g>
<g transform="translate(220,352) scale(3.6666666666667)"><rect width="6" height="6"/></g>
<g transform="translate(242,352) scale(3.6666666666667)"><rect width="6" height="6"/></g>
<g transform="translate(286,352) scale(3.6666666666667)"><rect width="6" height="6"/></g>
<g transform="translate(308,352) scale(3.6666666666667)"><rect width="6" height="6"/></g>
<g transform="translate(330,352) scale(3.6666666666667)"><rect width="6" height="6"/></g>
<g transform="translate(352,352) scale(3.6666666666667)"><rect width="6" height="6"/></g>
<g transform="translate(462,352) scale(3.6666666666667)"><rect width="6" height="6"/></g>
<g transform="translate(506,352) scale(3.6666666666667)"><rect width="6" height="6"/></g>
<g transform="translate(528,352) scale(3.6666666666667)"><rect width="6" height="6"/></g>
<g transform="translate(550,352) scale(3.6666666666667)"><rect width="6" height="6"/></g>
<g transform="translate(572,352) scale(3.6666666666667)"><rect width="6" height="6"/></g>
<g transform="translate(616,352) scale(3.6666666666667)"><rect width="6" height="6"/></g>
<g transform="translate(638,352) scale(3.6666666666667)"><rect width="6" height="6"/></g>
<g transform="translate(660,352) scale(3.6666666666667)"><rect width="6" height="6"/></g>
<g transform="translate(748,352) scale(3.6666666666667)"><rect width="6" height="6"/></g>
<g transform="translate(770,352) scale(3.6666666666667)"><rect width="6" height="6"/></g>
<g transform="translate(880,352) scale(3.6666666666667)"><rect width="6" height="6"/></g>
<g transform="translate(902,352) scale(3.6666666666667)"><rect width="6" height="6"/></g>
<g transform="translate(66,374) scale(3.6666666666667)"><rect width="6" height="6"/></g>
<g transform="translate(88,374) scale(3.6666666666667)"><rect width="6" height="6"/></g>
<g transform="translate(132,374) scale(3.6666666666667)"><rect width="6" height="6"/></g>
<g transform="translate(154,374) scale(3.6666666666667)"><rect width="6" height="6"/></g>
<g transform="translate(264,374) scale(3.6666666666667)"><rect width="6" height="6"/></g>
<g transform="translate(396,374) scale(3.6666666666667)"><rect width="6" height="6"/></g>
<g transform="translate(550,374) scale(3.6666666666667)"><rect width="6" height="6"/></g>
<g transform="translate(594,374) scale(3.6666666666667)"><rect width="6" height="6"/></g>
<g transform="translate(726,374) scale(3.6666666666667)"><rect width="6" height="6"/></g>
<g transform="translate(792,374) scale(3.6666666666667)"><rect width="6" height="6"/></g>
<g transform="translate(836,374) scale(3.6666666666667)"><rect width="6" height="6"/></g>
<g transform="translate(924,374) scale(3.6666666666667)"><rect width="6" height="6"/></g>
<g transform="translate(44,396) scale(3.6666666666667)"><rect width="6" height="6"/></g>
<g transform="translate(66,396) scale(3.6666666666667)"><rect width="6" height="6"/></g>
<g transform="translate(88,396) scale(3.6666666666667)"><rect width="6" height="6"/></g>
<g transform="translate(110,396) scale(3.6666666666667)"><rect width="6" height="6"/></g>
<g transform="translate(132,396) scale(3.6666666666667)"><rect width="6" height="6"/></g>
<g transform="translate(154,396) scale(3.6666666666667)"><rect width="6" height="6"/></g>
<g transform="translate(176,396) scale(3.6666666666667)"><rect width="6" height="6"/></g>
<g transform="translate(198,396) scale(3.6666666666667)"><rect width="6" height="6"/></g>
<g transform="translate(220,396) scale(3.6666666666667)"><rect width="6" height="6"/></g>
<g transform="translate(242,396) scale(3.6666666666667)"><rect width="6" height="6"/></g>
<g transform="translate(308,396) scale(3.6666666666667)"><rect width="6" height="6"/></g>
<g transform="translate(484,396) scale(3.6666666666667)"><rect width="6" height="6"/></g>
<g transform="translate(506,396) scale(3.6666666666667)"><rect width="6" height="6"/></g>
<g transform="translate(572,396) scale(3.6666666666667)"><rect width="6" height="6"/></g>
<g transform="translate(594,396) scale(3.6666666666667)"><rect width="6" height="6"/></g>
<g transform="translate(682,396) scale(3.6666666666667)"><rect width="6" height="6"/></g>
<g transform="translate(770,396) scale(3.6666666666667)"><rect width="6" height="6"/></g>
<g transform="translate(814,396) scale(3.6666666666667)"><rect width="6" height="6"/></g>
<g transform="translate(880,396) scale(3.6666666666667)"><rect width="6" height="6"/></g>
<g transform="translate(902,396) scale(3.6666666666667)"><rect width="6" height="6"/></g>
<g transform="translate(44,418) scale(3.6666666666667)"><rect width="6" height="6"/></g>
<g transform="translate(88,418) scale(3.6666666666667)"><rect width="6" height="6"/></g>
<g transform="translate(110,418) scale(3.6666666666667)"><rect width="6" height="6"/></g>
<g transform="translate(154,418) scale(3.6666666666667)"><rect width="6" height="6"/></g>
<g transform="translate(198,418) scale(3.6666666666667)"><rect width="6" height="6"/></g>
<g transform="translate(220,418) scale(3.6666666666667)"><rect width="6" height="6"/></g>
<g transform="translate(286,418) scale(3.6666666666667)"><rect width="6" height="6"/></g>
<g transform="translate(308,418) scale(3.6666666666667)"><rect width="6" height="6"/></g>
<g transform="translate(330,418) scale(3.6666666666667)"><rect width="6" height="6"/></g>
<g transform="translate(352,418) scale(3.6666666666667)"><rect width="6" height="6"/></g>
<g transform="translate(374,418) scale(3.6666666666667)"><rect width="6" height="6"/></g>
<g transform="translate(396,418) scale(3.6666666666667)"><rect width="6" height="6"/></g>
<g transform="translate(462,418) scale(3.6666666666667)"><rect width="6" height="6"/></g>
<g transform="translate(528,418) scale(3.6666666666667)"><rect width="6" height="6"/></g>
<g transform="translate(616,418) scale(3.6666666666667)"><rect width="6" height="6"/></g>
<g transform="translate(660,418) scale(3.6666666666667)"><rect width="6" height="6"/></g>
<g transform="translate(682,418) scale(3.6666666666667)"><rect width="6" height="6"/></g>
<g transform="translate(704,418) scale(3.6666666666667)"><rect width="6" height="6"/></g>
<g transform="translate(726,418) scale(3.6666666666667)"><rect width="6" height="6"/></g>
<g transform="translate(748,418) scale(3.6666666666667)"><rect width="6" height="6"/></g>
<g transform="translate(792,418) scale(3.6666666666667)"><rect width="6" height="6"/></g>
<g transform="translate(814,418) scale(3.6666666666667)"><rect width="6" height="6"/></g>
<g transform="translate(836,418) scale(3.6666666666667)"><rect width="6" height="6"/></g>
<g transform="translate(858,418) scale(3.6666666666667)"><rect width="6" height="6"/></g>
<g transform="translate(880,418) scale(3.6666666666667)"><rect width="6" height="6"/></g>
<g transform="translate(924,418) scale(3.6666666666667)"><rect width="6" height="6"/></g>
<g transform="translate(44,440) scale(3.6666666666667)"><rect width="6" height="6"/></g>
<g transform="translate(66,440) scale(3.6666666666667)"><rect width="6" height="6"/></g>
<g transform="translate(176,440) scale(3.6666666666667)"><rect width="6" height="6"/></g>
<g transform="translate(242,440) scale(3.6666666666667)"><rect width="6" height="6"/></g>
<g transform="translate(264,440) scale(3.6666666666667)"><rect width="6" height="6"/></g>
<g transform="translate(286,440) scale(3.6666666666667)"><rect width="6" height="6"/></g>
<g transform="translate(308,440) scale(3.6666666666667)"><rect width="6" height="6"/></g>
<g transform="translate(330,440) scale(3.6666666666667)"><rect width="6" height="6"/></g>
<g transform="translate(418,440) scale(3.6666666666667)"><rect width="6" height="6"/></g>
<g transform="translate(506,440) scale(3.6666666666667)"><rect width="6" height="6"/></g>
<g transform="translate(594,440) scale(3.6666666666667)"><rect width="6" height="6"/></g>
<g transform="translate(616,440) scale(3.6666666666667)"><rect width="6" height="6"/></g>
<g transform="translate(638,440) scale(3.6666666666667)"><rect width="6" height="6"/></g>
<g transform="translate(660,440) scale(3.6666666666667)"><rect width="6" height="6"/></g>
<g transform="translate(682,440) scale(3.6666666666667)"><rect width="6" height="6"/></g>
<g transform="translate(836,440) scale(3.6666666666667)"><rect width="6" height="6"/></g>
<g transform="translate(858,440) scale(3.6666666666667)"><rect width="6" height="6"/></g>
<g transform="translate(880,440) scale(3.6666666666667)"><rect width="6" height="6"/></g>
<g transform="translate(44,462) scale(3.6666666666667)"><rect width="6" height="6"/></g>
<g transform="translate(66,462) scale(3.6666666666667)"><rect width="6" height="6"/></g>
<g transform="translate(132,462) scale(3.6666666666667)"><rect width="6" height="6"/></g>
<g transform="translate(154,462) scale(3.6666666666667)"><rect width="6" height="6"/></g>
<g transform="translate(198,462) scale(3.6666666666667)"><rect width="6" height="6"/></g>
<g transform="translate(220,462) scale(3.6666666666667)"><rect width="6" height="6"/></g>
<g transform="translate(330,462) scale(3.6666666666667)"><rect width="6" height="6"/></g>
<g transform="translate(374,462) scale(3.6666666666667)"><rect width="6" height="6"/></g>
<g transform="translate(418,462) scale(3.6666666666667)"><rect width="6" height="6"/></g>
<g transform="translate(484,462) scale(3.6666666666667)"><rect width="6" height="6"/></g>
<g transform="translate(506,462) scale(3.6666666666667)"><rect width="6" height="6"/></g>
<g transform="translate(572,462) scale(3.6666666666667)"><rect width="6" height="6"/></g>
<g transform="translate(594,462) scale(3.6666666666667)"><rect width="6" height="6"/></g>
<g transform="translate(616,462) scale(3.6666666666667)"><rect width="6" height="6"/></g>
<g transform="translate(704,462) scale(3.6666666666667)"><rect width="6" height="6"/></g>
<g transform="translate(726,462) scale(3.6666666666667)"><rect width="6" height="6"/></g>
<g transform="translate(770,462) scale(3.6666666666667)"><rect width="6" height="6"/></g>
<g transform="translate(836,462) scale(3.6666666666667)"><rect width="6" height="6"/></g>
<g transform="translate(858,462) scale(3.6666666666667)"><rect width="6" height="6"/></g>
<g transform="translate(44,484) scale(3.6666666666667)"><rect width="6" height="6"/></g>
<g transform="translate(66,484) scale(3.6666666666667)"><rect width="6" height="6"/></g>
<g transform="translate(132,484) scale(3.6666666666667)"><rect width="6" height="6"/></g>
<g transform="translate(176,484) scale(3.6666666666667)"><rect width="6" height="6"/></g>
<g transform="translate(286,484) scale(3.6666666666667)"><rect width="6" height="6"/></g>
<g transform="translate(308,484) scale(3.6666666666667)"><rect width="6" height="6"/></g>
<g transform="translate(330,484) scale(3.6666666666667)"><rect width="6" height="6"/></g>
<g transform="translate(352,484) scale(3.6666666666667)"><rect width="6" height="6"/></g>
<g transform="translate(374,484) scale(3.6666666666667)"><rect width="6" height="6"/></g>
<g transform="translate(396,484) scale(3.6666666666667)"><rect width="6" height="6"/></g>
<g transform="translate(418,484) scale(3.6666666666667)"><rect width="6" height="6"/></g>
<g transform="translate(440,484) scale(3.6666666666667)"><rect width="6" height="6"/></g>
<g transform="translate(506,484) scale(3.6666666666667)"><rect width="6" height="6"/></g>
<g transform="translate(572,484) scale(3.6666666666667)"><rect width="6" height="6"/></g>
<g transform="translate(616,484) scale(3.6666666666667)"><rect width="6" height="6"/></g>
<g transform="translate(638,484) scale(3.6666666666667)"><rect width="6" height="6"/></g>
<g transform="translate(682,484) scale(3.6666666666667)"><rect width="6" height="6"/></g>
<g transform="translate(814,484) scale(3.6666666666667)"><rect width="6" height="6"/></g>
<g transform="translate(858,484) scale(3.6666666666667)"><rect width="6" height="6"/></g>
<g transform="translate(880,484) scale(3.6666666666667)"><rect width="6" height="6"/></g>
<g transform="translate(44,506) scale(3.6666666666667)"><rect width="6" height="6"/></g>
<g transform="translate(66,506) scale(3.6666666666667)"><rect width="6" height="6"/></g>
<g transform="translate(110,506) scale(3.6666666666667)"><rect width="6" height="6"/></g>
<g transform="translate(132,506) scale(3.6666666666667)"><rect width="6" height="6"/></g>
<g transform="translate(198,506) scale(3.6666666666667)"><rect width="6" height="6"/></g>
<g transform="translate(220,506) scale(3.6666666666667)"><rect width="6" height="6"/></g>
<g transform="translate(242,506) scale(3.6666666666667)"><rect width="6" height="6"/></g>
<g transform="translate(286,506) scale(3.6666666666667)"><rect width="6" height="6"/></g>
<g transform="translate(308,506) scale(3.6666666666667)"><rect width="6" height="6"/></g>
<g transform="translate(330,506) scale(3.6666666666667)"><rect width="6" height="6"/></g>
<g transform="translate(418,506) scale(3.6666666666667)"><rect width="6" height="6"/></g>
<g transform="translate(440,506) scale(3.6666666666667)"><rect width="6" height="6"/></g>
<g transform="translate(484,506) scale(3.6666666666667)"><rect width="6" height="6"/></g>
<g transform="translate(506,506) scale(3.6666666666667)"><rect width="6" height="6"/></g>
<g transform="translate(550,506) scale(3.6666666666667)"><rect width="6" height="6"/></g>
<g transform="translate(594,506) scale(3.6666666666667)"><rect width="6" height="6"/></g>
<g transform="translate(616,506) scale(3.6666666666667)"><rect width="6" height="6"/></g>
<g transform="translate(660,506) scale(3.6666666666667)"><rect width="6" height="6"/></g>
<g transform="translate(682,506) scale(3.6666666666667)"><rect width="6" height="6"/></g>
<g transform="translate(704,506) scale(3.6666666666667)"><rect width="6" height="6"/></g>
<g transform="translate(726,506) scale(3.6666666666667)"><rect width="6" height="6"/></g>
<g transform="translate(748,506) scale(3.6666666666667)"><rect width="6" height="6"/></g>
<g transform="translate(770,506) scale(3.6666666666667)"><rect width="6" height="6"/></g>
<g transform="translate(792,506) scale(3.6666666666667)"><rect width="6" height="6"/></g>
<g transform="translate(814,506) scale(3.6666666666667)"><rect width="6" height="6"/></g>
<g transform="translate(836,506) scale(3.6666666666667)"><rect width="6" height="6"/></g>
<g transform="translate(880,506) scale(3.6666666666667)"><rect width="6" height="6"/></g>
<g transform="translate(902,506) scale(3.6666666666667)"><rect width="6" height="6"/></g>
<g transform="translate(924,506) scale(3.6666666666667)"><rect width="6" height="6"/></g>
<g transform="translate(88,528) scale(3.6666666666667)"><rect width="6" height="6"/></g>
<g transform="translate(132,528) scale(3.6666666666667)"><rect width="6" height="6"/></g>
<g transform="translate(176,528) scale(3.6666666666667)"><rect width="6" height="6"/></g>
<g transform="translate(242,528) scale(3.6666666666667)"><rect width="6" height="6"/></g>
<g transform="translate(264,528) scale(3.6666666666667)"><rect width="6" height="6"/></g>
<g transform="translate(308,528) scale(3.6666666666667)"><rect width="6" height="6"/></g>
<g transform="translate(330,528) scale(3.6666666666667)"><rect width="6" height="6"/></g>
<g transform="translate(352,528) scale(3.6666666666667)"><rect width="6" height="6"/></g>
<g transform="translate(418,528) scale(3.6666666666667)"><rect width="6" height="6"/></g>
<g transform="translate(440,528) scale(3.6666666666667)"><rect width="6" height="6"/></g>
<g transform="translate(484,528) scale(3.6666666666667)"><rect width="6" height="6"/></g>
<g transform="translate(506,528) scale(3.6666666666667)"><rect width="6" height="6"/></g>
<g transform="translate(638,528) scale(3.6666666666667)"><rect width="6" height="6"/></g>
<g transform="translate(660,528) scale(3.6666666666667)"><rect width="6" height="6"/></g>
<g transform="translate(704,528) scale(3.6666666666667)"><rect width="6" height="6"/></g>
<g transform="translate(770,528) scale(3.6666666666667)"><rect width="6" height="6"/></g>
<g transform="translate(814,528) scale(3.6666666666667)"><rect width="6" height="6"/></g>
<g transform="translate(836,528) scale(3.6666666666667)"><rect width="6" height="6"/></g>
<g transform="translate(66,550) scale(3.6666666666667)"><rect width="6" height="6"/></g>
<g transform="translate(110,550) scale(3.6666666666667)"><rect width="6" height="6"/></g>
<g transform="translate(132,550) scale(3.6666666666667)"><rect width="6" height="6"/></g>
<g transform="translate(198,550) scale(3.6666666666667)"><rect width="6" height="6"/></g>
<g transform="translate(220,550) scale(3.6666666666667)"><rect width="6" height="6"/></g>
<g transform="translate(242,550) scale(3.6666666666667)"><rect width="6" height="6"/></g>
<g transform="translate(264,550) scale(3.6666666666667)"><rect width="6" height="6"/></g>
<g transform="translate(286,550) scale(3.6666666666667)"><rect width="6" height="6"/></g>
<g transform="translate(308,550) scale(3.6666666666667)"><rect width="6" height="6"/></g>
<g transform="translate(330,550) scale(3.6666666666667)"><rect width="6" height="6"/></g>
<g transform="translate(352,550) scale(3.6666666666667)"><rect width="6" height="6"/></g>
<g transform="translate(418,550) scale(3.6666666666667)"><rect width="6" height="6"/></g>
<g transform="translate(440,550) scale(3.6666666666667)"><rect width="6" height="6"/></g>
<g transform="translate(462,550) scale(3.6666666666667)"><rect width="6" height="6"/></g>
<g transform="translate(484,550) scale(3.6666666666667)"><rect width="6" height="6"/></g>
<g transform="translate(506,550) scale(3.6666666666667)"><rect width="6" height="6"/></g>
<g transform="translate(528,550) scale(3.6666666666667)"><rect width="6" height="6"/></g>
<g transform="translate(660,550) scale(3.6666666666667)"><rect width="6" height="6"/></g>
<g transform="translate(704,550) scale(3.6666666666667)"><rect width="6" height="6"/></g>
<g transform="translate(726,550) scale(3.6666666666667)"><rect width="6" height="6"/></g>
<g transform="translate(748,550) scale(3.6666666666667)"><rect width="6" height="6"/></g>
<g transform="translate(770,550) scale(3.6666666666667)"><rect width="6" height="6"/></g>
<g transform="translate(792,550) scale(3.6666666666667)"><rect width="6" height="6"/></g>
<g transform="translate(814,550) scale(3.6666666666667)"><rect width="6" height="6"/></g>
<g transform="translate(836,550) scale(3.6666666666667)"><rect width="6" height="6"/></g>
<g transform="translate(858,550) scale(3.6666666666667)"><rect width="6" height="6"/></g>
<g transform="translate(44,572) scale(3.6666666666667)"><rect width="6" height="6"/></g>
<g transform="translate(66,572) scale(3.6666666666667)"><rect width="6" height="6"/></g>
<g transform="translate(88,572) scale(3.6666666666667)"><rect width="6" height="6"/></g>
<g transform="translate(154,572) scale(3.6666666666667)"><rect width="6" height="6"/></g>
<g transform="translate(176,572) scale(3.6666666666667)"><rect width="6" height="6"/></g>
<g transform="translate(198,572) scale(3.6666666666667)"><rect width="6" height="6"/></g>
<g transform="translate(220,572) scale(3.6666666666667)"><rect width="6" height="6"/></g>
<g transform="translate(264,572) scale(3.6666666666667)"><rect width="6" height="6"/></g>
<g transform="translate(286,572) scale(3.6666666666667)"><rect width="6" height="6"/></g>
<g transform="translate(330,572) scale(3.6666666666667)"><rect width="6" height="6"/></g>
<g transform="translate(374,572) scale(3.6666666666667)"><rect width="6" height="6"/></g>
<g transform="translate(616,572) scale(3.6666666666667)"><rect width="6" height="6"/></g>
<g transform="translate(682,572) scale(3.6666666666667)"><rect width="6" height="6"/></g>
<g transform="translate(814,572) scale(3.6666666666667)"><rect width="6" height="6"/></g>
<g transform="translate(836,572) scale(3.6666666666667)"><rect width="6" height="6"/></g>
<g transform="translate(858,572) scale(3.6666666666667)"><rect width="6" height="6"/></g>
<g transform="translate(902,572) scale(3.6666666666667)"><rect width="6" height="6"/></g>
<g transform="translate(924,572) scale(3.6666666666667)"><rect width="6" height="6"/></g>
<g transform="translate(44,594) scale(3.6666666666667)"><rect width="6" height="6"/></g>
<g transform="translate(88,594) scale(3.6666666666667)"><rect width="6" height="6"/></g>
<g transform="translate(110,594) scale(3.6666666666667)"><rect width="6" height="6"/></g>
<g transform="translate(154,594) scale(3.6666666666667)"><rect width="6" height="6"/></g>
<g transform="translate(220,594) scale(3.6666666666667)"><rect width="6" height="6"/></g>
<g transform="translate(286,594) scale(3.6666666666667)"><rect width="6" height="6"/></g>
<g transform="translate(308,594) scale(3.6666666666667)"><rect width="6" height="6"/></g>
<g transform="translate(330,594) scale(3.6666666666667)"><rect width="6" height="6"/></g>
<g transform="translate(352,594) scale(3.6666666666667)"><rect width="6" height="6"/></g>
<g transform="translate(374,594) scale(3.6666666666667)"><rect width="6" height="6"/></g>
<g transform="translate(396,594) scale(3.6666666666667)"><rect width="6" height="6"/></g>
<g transform="translate(440,594) scale(3.6666666666667)"><rect width="6" height="6"/></g>
<g transform="translate(484,594) scale(3.6666666666667)"><rect width="6" height="6"/></g>
<g transform="translate(616,594) scale(3.6666666666667)"><rect width="6" height="6"/></g>
<g transform="translate(726,594) scale(3.6666666666667)"><rect width="6" height="6"/></g>
<g transform="translate(770,594) scale(3.6666666666667)"><rect width="6" height="6"/></g>
<g transform="translate(792,594) scale(3.6666666666667)"><rect width="6" height="6"/></g>
<g transform="translate(814,594) scale(3.6666666666667)"><rect width="6" height="6"/></g>
<g transform="translate(836,594) scale(3.6666666666667)"><rect width="6" height="6"/></g>
<g transform="translate(858,594) scale(3.6666666666667)"><rect width="6" height="6"/></g>
<g transform="translate(902,594) scale(3.6666666666667)"><rect width="6" height="6"/></g>
<g transform="translate(924,594) scale(3.6666666666667)"><rect width="6" height="6"/></g>
<g transform="translate(44,616) scale(3.6666666666667)"><rect width="6" height="6"/></g>
<g transform="translate(88,616) scale(3.6666666666667)"><rect width="6" height="6"/></g>
<g transform="translate(110,616) scale(3.6666666666667)"><rect width="6" height="6"/></g>
<g transform="translate(176,616) scale(3.6666666666667)"><rect width="6" height="6"/></g>
<g transform="translate(220,616) scale(3.6666666666667)"><rect width="6" height="6"/></g>
<g transform="translate(286,616) scale(3.6666666666667)"><rect width="6" height="6"/></g>
<g transform="translate(308,616) scale(3.6666666666667)"><rect width="6" height="6"/></g>
<g transform="translate(462,616) scale(3.6666666666667)"><rect width="6" height="6"/></g>
<g transform="translate(484,616) scale(3.6666666666667)"><rect width="6" height="6"/></g>
<g transform="translate(506,616) scale(3.6666666666667)"><rect width="6" height="6"/></g>
<g transform="translate(572,616) scale(3.6666666666667)"><rect width="6" height="6"/></g>
<g transform="translate(594,616) scale(3.6666666666667)"><rect width="6" height="6"/></g>
<g transform="translate(616,616) scale(3.6666666666667)"><rect width="6" height="6"/></g>
<g transform="translate(638,616) scale(3.6666666666667)"><rect width="6" height="6"/></g>
<g transform="translate(660,616) scale(3.6666666666667)"><rect width="6" height="6"/></g>
<g transform="translate(748,616) scale(3.6666666666667)"><rect width="6" height="6"/></g>
<g transform="translate(770,616) scale(3.6666666666667)"><rect width="6" height="6"/></g>
<g transform="translate(836,616) scale(3.6666666666667)"><rect width="6" height="6"/></g>
<g transform="translate(44,638) scale(3.6666666666667)"><rect width="6" height="6"/></g>
<g transform="translate(88,638) scale(3.6666666666667)"><rect width="6" height="6"/></g>
<g transform="translate(286,638) scale(3.6666666666667)"><rect width="6" height="6"/></g>
<g transform="translate(308,638) scale(3.6666666666667)"><rect width="6" height="6"/></g>
<g transform="translate(352,638) scale(3.6666666666667)"><rect width="6" height="6"/></g>
<g transform="translate(374,638) scale(3.6666666666667)"><rect width="6" height="6"/></g>
<g transform="translate(418,638) scale(3.6666666666667)"><rect width="6" height="6"/></g>
<g transform="translate(462,638) scale(3.6666666666667)"><rect width="6" height="6"/></g>
<g transform="translate(484,638) scale(3.6666666666667)"><rect width="6" height="6"/></g>
<g transform="translate(528,638) scale(3.6666666666667)"><rect width="6" height="6"/></g>
<g transform="translate(616,638) scale(3.6666666666667)"><rect width="6" height="6"/></g>
<g transform="translate(660,638) scale(3.6666666666667)"><rect width="6" height="6"/></g>
<g transform="translate(704,638) scale(3.6666666666667)"><rect width="6" height="6"/></g>
<g transform="translate(726,638) scale(3.6666666666667)"><rect width="6" height="6"/></g>
<g transform="translate(748,638) scale(3.6666666666667)"><rect width="6" height="6"/></g>
<g transform="translate(814,638) scale(3.6666666666667)"><rect width="6" height="6"/></g>
<g transform="translate(836,638) scale(3.6666666666667)"><rect width="6" height="6"/></g>
<g transform="translate(858,638) scale(3.6666666666667)"><rect width="6" height="6"/></g>
<g transform="translate(924,638) scale(3.6666666666667)"><rect width="6" height="6"/></g>
<g transform="translate(44,660) scale(3.6666666666667)"><rect width="6" height="6"/></g>
<g transform="translate(88,660) scale(3.6666666666667)"><rect width="6" height="6"/></g>
<g transform="translate(132,660) scale(3.6666666666667)"><rect width="6" height="6"/></g>
<g transform="translate(154,660) scale(3.6666666666667)"><rect width="6" height="6"/></g>
<g transform="translate(176,660) scale(3.6666666666667)"><rect width="6" height="6"/></g>
<g transform="translate(286,660) scale(3.6666666666667)"><rect width="6" height="6"/></g>
<g transform="translate(374,660) scale(3.6666666666667)"><rect width="6" height="6"/></g>
<g transform="translate(418,660) scale(3.6666666666667)"><rect width="6" height="6"/></g>
<g transform="translate(484,660) scale(3.6666666666667)"><rect width="6" height="6"/></g>
<g transform="translate(506,660) scale(3.6666666666667)"><rect width="6" height="6"/></g>
<g transform="translate(572,660) scale(3.6666666666667)"><rect width="6" height="6"/></g>
<g transform="translate(594,660) scale(3.6666666666667)"><rect width="6" height="6"/></g>
<g transform="translate(616,660) scale(3.6666666666667)"><rect width="6" height="6"/></g>
<g transform="translate(682,660) scale(3.6666666666667)"><rect width="6" height="6"/></g>
<g transform="translate(726,660) scale(3.6666666666667)"><rect width="6" height="6"/></g>
<g transform="translate(748,660) scale(3.6666666666667)"><rect width="6" height="6"/></g>
<g transform="translate(814,660) scale(3.6666666666667)"><rect width="6" height="6"/></g>
<g transform="translate(858,660) scale(3.6666666666667)"><rect width="6" height="6"/></g>
<g transform="translate(880,660) scale(3.6666666666667)"><rect width="6" height="6"/></g>
<g transform="translate(44,682) scale(3.6666666666667)"><rect width="6" height="6"/></g>
<g transform="translate(66,682) scale(3.6666666666667)"><rect width="6" height="6"/></g>
<g transform="translate(198,682) scale(3.6666666666667)"><rect width="6" height="6"/></g>
<g transform="translate(220,682) scale(3.6666666666667)"><rect width="6" height="6"/></g>
<g transform="translate(286,682) scale(3.6666666666667)"><rect width="6" height="6"/></g>
<g transform="translate(308,682) scale(3.6666666666667)"><rect width="6" height="6"/></g>
<g transform="translate(330,682) scale(3.6666666666667)"><rect width="6" height="6"/></g>
<g transform="translate(352,682) scale(3.6666666666667)"><rect width="6" height="6"/></g>
<g transform="translate(396,682) scale(3.6666666666667)"><rect width="6" height="6"/></g>
<g transform="translate(440,682) scale(3.6666666666667)"><rect width="6" height="6"/></g>
<g transform="translate(484,682) scale(3.6666666666667)"><rect width="6" height="6"/></g>
<g transform="translate(506,682) scale(3.6666666666667)"><rect width="6" height="6"/></g>
<g transform="translate(528,682) scale(3.6666666666667)"><rect width="6" height="6"/></g>
<g transform="translate(550,682) scale(3.6666666666667)"><rect width="6" height="6"/></g>
<g transform="translate(594,682) scale(3.6666666666667)"><rect width="6" height="6"/></g>
<g transform="translate(660,682) scale(3.6666666666667)"><rect width="6" height="6"/></g>
<g transform="translate(682,682) scale(3.6666666666667)"><rect width="6" height="6"/></g>
<g transform="translate(726,682) scale(3.6666666666667)"><rect width="6" height="6"/></g>
<g transform="translate(770,682) scale(3.6666666666667)"><rect width="6" height="6"/></g>
<g transform="translate(814,682) scale(3.6666666666667)"><rect width="6" height="6"/></g>
<g transform="translate(836,682) scale(3.6666666666667)"><rect width="6" height="6"/></g>
<g transform="translate(858,682) scale(3.6666666666667)"><rect width="6" height="6"/></g>
<g transform="translate(880,682) scale(3.6666666666667)"><rect width="6" height="6"/></g>
<g transform="translate(924,682) scale(3.6666666666667)"><rect width="6" height="6"/></g>
<g transform="translate(44,704) scale(3.6666666666667)"><rect width="6" height="6"/></g>
<g transform="translate(88,704) scale(3.6666666666667)"><rect width="6" height="6"/></g>
<g transform="translate(110,704) scale(3.6666666666667)"><rect width="6" height="6"/></g>
<g transform="translate(176,704) scale(3.6666666666667)"><rect width="6" height="6"/></g>
<g transform="translate(198,704) scale(3.6666666666667)"><rect width="6" height="6"/></g>
<g transform="translate(220,704) scale(3.6666666666667)"><rect width="6" height="6"/></g>
<g transform="translate(242,704) scale(3.6666666666667)"><rect width="6" height="6"/></g>
<g transform="translate(264,704) scale(3.6666666666667)"><rect width="6" height="6"/></g>
<g transform="translate(286,704) scale(3.6666666666667)"><rect width="6" height="6"/></g>
<g transform="translate(330,704) scale(3.6666666666667)"><rect width="6" height="6"/></g>
<g transform="translate(352,704) scale(3.6666666666667)"><rect width="6" height="6"/></g>
<g transform="translate(418,704) scale(3.6666666666667)"><rect width="6" height="6"/></g>
<g transform="translate(462,704) scale(3.6666666666667)"><rect width="6" height="6"/></g>
<g transform="translate(528,704) scale(3.6666666666667)"><rect width="6" height="6"/></g>
<g transform="translate(550,704) scale(3.6666666666667)"><rect width="6" height="6"/></g>
<g transform="translate(572,704) scale(3.6666666666667)"><rect width="6" height="6"/></g>
<g transform="translate(594,704) scale(3.6666666666667)"><rect width="6" height="6"/></g>
<g transform="translate(616,704) scale(3.6666666666667)"><rect width="6" height="6"/></g>
<g transform="translate(638,704) scale(3.6666666666667)"><rect width="6" height="6"/></g>
<g transform="translate(682,704) scale(3.6666666666667)"><rect width="6" height="6"/></g>
<g transform="translate(704,704) scale(3.6666666666667)"><rect width="6" height="6"/></g>
<g transform="translate(748,704) scale(3.6666666666667)"><rect width="6" height="6"/></g>
<g transform="translate(770,704) scale(3.6666666666667)"><rect width="6" height="6"/></g>
<g transform="translate(792,704) scale(3.6666666666667)"><rect width="6" height="6"/></g>
<g transform="translate(814,704) scale(3.6666666666667)"><rect width="6" height="6"/></g>
<g transform="translate(836,704) scale(3.6666666666667)"><rect width="6" height="6"/></g>
<g transform="translate(858,704) scale(3.6666666666667)"><rect width="6" height="6"/></g>
<g transform="translate(880,704) scale(3.6666666666667)"><rect width="6" height="6"/></g>
<g transform="translate(44,726) scale(3.6666666666667)"><rect width="6" height="6"/></g>
<g transform="translate(110,726) scale(3.6666666666667)"><rect width="6" height="6"/></g>
<g transform="translate(242,726) scale(3.6666666666667)"><rect width="6" height="6"/></g>
<g transform="translate(286,726) scale(3.6666666666667)"><rect width="6" height="6"/></g>
<g transform="translate(308,726) scale(3.6666666666667)"><rect width="6" height="6"/></g>
<g transform="translate(418,726) scale(3.6666666666667)"><rect width="6" height="6"/></g>
<g transform="translate(462,726) scale(3.6666666666667)"><rect width="6" height="6"/></g>
<g transform="translate(484,726) scale(3.6666666666667)"><rect width="6" height="6"/></g>
<g transform="translate(550,726) scale(3.6666666666667)"><rect width="6" height="6"/></g>
<g transform="translate(594,726) scale(3.6666666666667)"><rect width="6" height="6"/></g>
<g transform="translate(616,726) scale(3.6666666666667)"><rect width="6" height="6"/></g>
<g transform="translate(638,726) scale(3.6666666666667)"><rect width="6" height="6"/></g>
<g transform="translate(704,726) scale(3.6666666666667)"><rect width="6" height="6"/></g>
<g transform="translate(748,726) scale(3.6666666666667)"><rect width="6" height="6"/></g>
<g transform="translate(770,726) scale(3.6666666666667)"><rect width="6" height="6"/></g>
<g transform="translate(792,726) scale(3.6666666666667)"><rect width="6" height="6"/></g>
<g transform="translate(836,726) scale(3.6666666666667)"><rect width="6" height="6"/></g>
<g transform="translate(858,726) scale(3.6666666666667)"><rect width="6" height="6"/></g>
<g transform="translate(44,748) scale(3.6666666666667)"><rect width="6" height="6"/></g>
<g transform="translate(88,748) scale(3.6666666666667)"><rect width="6" height="6"/></g>
<g transform="translate(154,748) scale(3.6666666666667)"><rect width="6" height="6"/></g>
<g transform="translate(176,748) scale(3.6666666666667)"><rect width="6" height="6"/></g>
<g transform="translate(198,748) scale(3.6666666666667)"><rect width="6" height="6"/></g>
<g transform="translate(264,748) scale(3.6666666666667)"><rect width="6" height="6"/></g>
<g transform="translate(308,748) scale(3.6666666666667)"><rect width="6" height="6"/></g>
<g transform="translate(374,748) scale(3.6666666666667)"><rect width="6" height="6"/></g>
<g transform="translate(396,748) scale(3.6666666666667)"><rect width="6" height="6"/></g>
<g transform="translate(440,748) scale(3.6666666666667)"><rect width="6" height="6"/></g>
<g transform="translate(484,748) scale(3.6666666666667)"><rect width="6" height="6"/></g>
<g transform="translate(572,748) scale(3.6666666666667)"><rect width="6" height="6"/></g>
<g transform="translate(616,748) scale(3.6666666666667)"><rect width="6" height="6"/></g>
<g transform="translate(638,748) scale(3.6666666666667)"><rect width="6" height="6"/></g>
<g transform="translate(726,748) scale(3.6666666666667)"><rect width="6" height="6"/></g>
<g transform="translate(748,748) scale(3.6666666666667)"><rect width="6" height="6"/></g>
<g transform="translate(770,748) scale(3.6666666666667)"><rect width="6" height="6"/></g>
<g transform="translate(792,748) scale(3.6666666666667)"><rect width="6" height="6"/></g>
<g transform="translate(814,748) scale(3.6666666666667)"><rect width="6" height="6"/></g>
<g transform="translate(836,748) scale(3.6666666666667)"><rect width="6" height="6"/></g>
<g transform="translate(880,748) scale(3.6666666666667)"><rect width="6" height="6"/></g>
<g transform="translate(902,748) scale(3.6666666666667)"><rect width="6" height="6"/></g>
<g transform="translate(220,770) scale(3.6666666666667)"><rect width="6" height="6"/></g>
<g transform="translate(264,770) scale(3.6666666666667)"><rect width="6" height="6"/></g>
<g transform="translate(330,770) scale(3.6666666666667)"><rect width="6" height="6"/></g>
<g transform="translate(352,770) scale(3.6666666666667)"><rect width="6" height="6"/></g>
<g transform="translate(396,770) scale(3.6666666666667)"><rect width="6" height="6"/></g>
<g transform="translate(462,770) scale(3.6666666666667)"><rect width="6" height="6"/></g>
<g transform="translate(484,770) scale(3.6666666666667)"><rect width="6" height="6"/></g>
<g transform="translate(506,770) scale(3.6666666666667)"><rect width="6" height="6"/></g>
<g transform="translate(528,770) scale(3.6666666666667)"><rect width="6" height="6"/></g>
<g transform="translate(550,770) scale(3.6666666666667)"><rect width="6" height="6"/></g>
<g transform="translate(572,770) scale(3.6666666666667)"><rect width="6" height="6"/></g>
<g transform="translate(594,770) scale(3.6666666666667)"><rect width="6" height="6"/></g>
<g transform="translate(638,770) scale(3.6666666666667)"><rect width="6" height="6"/></g>
<g transform="translate(660,770) scale(3.6666666666667)"><rect width="6" height="6"/></g>
<g transform="translate(704,770) scale(3.6666666666667)"><rect width="6" height="6"/></g>
<g transform="translate(726,770) scale(3.6666666666667)"><rect width="6" height="6"/></g>
<g transform="translate(748,770) scale(3.6666666666667)"><rect width="6" height="6"/></g>
<g transform="translate(836,770) scale(3.6666666666667)"><rect width="6" height="6"/></g>
<g transform="translate(858,770) scale(3.6666666666667)"><rect width="6" height="6"/></g>
<g transform="translate(902,770) scale(3.6666666666667)"><rect width="6" height="6"/></g>
<g transform="translate(924,770) scale(3.6666666666667)"><rect width="6" height="6"/></g>
<g transform="translate(264,792) scale(3.6666666666667)"><rect width="6" height="6"/></g>
<g transform="translate(286,792) scale(3.6666666666667)"><rect width="6" height="6"/></g>
<g transform="translate(308,792) scale(3.6666666666667)"><rect width="6" height="6"/></g>
<g transform="translate(352,792) scale(3.6666666666667)"><rect width="6" height="6"/></g>
<g transform="translate(374,792) scale(3.6666666666667)"><rect width="6" height="6"/></g>
<g transform="translate(418,792) scale(3.6666666666667)"><rect width="6" height="6"/></g>
<g transform="translate(440,792) scale(3.6666666666667)"><rect width="6" height="6"/></g>
<g transform="translate(462,792) scale(3.6666666666667)"><rect width="6" height="6"/></g>
<g transform="translate(572,792) scale(3.6666666666667)"><rect width="6" height="6"/></g>
<g transform="translate(616,792) scale(3.6666666666667)"><rect width="6" height="6"/></g>
<g transform="translate(638,792) scale(3.6666666666667)"><rect width="6" height="6"/></g>
<g transform="translate(660,792) scale(3.6666666666667)"><rect width="6" height="6"/></g>
<g transform="translate(704,792) scale(3.6666666666667)"><rect width="6" height="6"/></g>
<g transform="translate(726,792) scale(3.6666666666667)"><rect width="6" height="6"/></g>
<g transform="translate(748,792) scale(3.6666666666667)"><rect width="6" height="6"/></g>
<g transform="translate(792,792) scale(3.6666666666667)"><rect width="6" height="6"/></g>
<g transform="translate(836,792) scale(3.6666666666667)"><rect width="6" height="6"/></g>
<g transform="translate(858,792) scale(3.6666666666667)"><rect width="6" height="6"/></g>
<g transform="translate(242,814) scale(3.6666666666667)"><rect width="6" height="6"/></g>
<g transform="translate(264,814) scale(3.6666666666667)"><rect width="6" height="6"/></g>
<g transform="translate(286,814) scale(3.6666666666667)"><rect width="6" height="6"/></g>
<g transform="translate(308,814) scale(3.6666666666667)"><rect width="6" height="6"/></g>
<g transform="translate(330,814) scale(3.6666666666667)"><rect width="6" height="6"/></g>
<g transform="translate(352,814) scale(3.6666666666667)"><rect width="6" height="6"/></g>
<g transform="translate(374,814) scale(3.6666666666667)"><rect width="6" height="6"/></g>
<g transform="translate(418,814) scale(3.6666666666667)"><rect width="6" height="6"/></g>
<g transform="translate(440,814) scale(3.6666666666667)"><rect width="6" height="6"/></g>
<g transform="translate(462,814) scale(3.6666666666667)"><rect width="6" height="6"/></g>
<g transform="translate(484,814) scale(3.6666666666667)"><rect width="6" height="6"/></g>
<g transform="translate(528,814) scale(3.6666666666667)"><rect width="6" height="6"/></g>
<g transform="translate(572,814) scale(3.6666666666667)"><rect width="6" height="6"/></g>
<g transform="translate(594,814) scale(3.6666666666667)"><rect width="6" height="6"/></g>
<g transform="translate(638,814) scale(3.6666666666667)"><rect width="6" height="6"/></g>
<g transform="translate(660,814) scale(3.6666666666667)"><rect width="6" height="6"/></g>
<g transform="translate(748,814) scale(3.6666666666667)"><rect width="6" height="6"/></g>
<g transform="translate(836,814) scale(3.6666666666667)"><rect width="6" height="6"/></g>
<g transform="translate(902,814) scale(3.6666666666667)"><rect width="6" height="6"/></g>
<g transform="translate(220,836) scale(3.6666666666667)"><rect width="6" height="6"/></g>
<g transform="translate(242,836) scale(3.6666666666667)"><rect width="6" height="6"/></g>
<g transform="translate(308,836) scale(3.6666666666667)"><rect width="6" height="6"/></g>
<g transform="translate(330,836) scale(3.6666666666667)"><rect width="6" height="6"/></g>
<g transform="translate(418,836) scale(3.6666666666667)"><rect width="6" height="6"/></g>
<g transform="translate(484,836) scale(3.6666666666667)"><rect width="6" height="6"/></g>
<g transform="translate(550,836) scale(3.6666666666667)"><rect width="6" height="6"/></g>
<g transform="translate(682,836) scale(3.6666666666667)"><rect width="6" height="6"/></g>
<g transform="translate(748,836) scale(3.6666666666667)"><rect width="6" height="6"/></g>
<g transform="translate(770,836) scale(3.6666666666667)"><rect width="6" height="6"/></g>
<g transform="translate(792,836) scale(3.6666666666667)"><rect width="6" height="6"/></g>
<g transform="translate(814,836) scale(3.6666666666667)"><rect width="6" height="6"/></g>
<g transform="translate(836,836) scale(3.6666666666667)"><rect width="6" height="6"/></g>
<g transform="translate(858,836) scale(3.6666666666667)"><rect width="6" height="6"/></g>
<g transform="translate(880,836) scale(3.6666666666667)"><rect width="6" height="6"/></g>
<g transform="translate(220,858) scale(3.6666666666667)"><rect width="6" height="6"/></g>
<g transform="translate(264,858) scale(3.6666666666667)"><rect width="6" height="6"/></g>
<g transform="translate(286,858) scale(3.6666666666667)"><rect width="6" height="6"/></g>
<g transform="translate(308,858) scale(3.6666666666667)"><rect width="6" height="6"/></g>
<g transform="translate(418,858) scale(3.6666666666667)"><rect width="6" height="6"/></g>
<g transform="translate(528,858) scale(3.6666666666667)"><rect width="6" height="6"/></g>
<g transform="translate(550,858) scale(3.6666666666667)"><rect width="6" height="6"/></g>
<g transform="translate(572,858) scale(3.6666666666667)"><rect width="6" height="6"/></g>
<g transform="translate(594,858) scale(3.6666666666667)"><rect width="6" height="6"/></g>
<g transform="translate(726,858) scale(3.6666666666667)"><rect width="6" height="6"/></g>
<g transform="translate(770,858) scale(3.6666666666667)"><rect width="6" height="6"/></g>
<g transform="translate(814,858) scale(3.6666666666667)"><rect width="6" height="6"/></g>
<g transform="translate(858,858) scale(3.6666666666667)"><rect width="6" height="6"/></g>
<g transform="translate(924,858) scale(3.6666666666667)"><rect width="6" height="6"/></g>
<g transform="translate(220,880) scale(3.6666666666667)"><rect width="6" height="6"/></g>
<g transform="translate(264,880) scale(3.6666666666667)"><rect width="6" height="6"/></g>
<g transform="translate(308,880) scale(3.6666666666667)"><rect width="6" height="6"/></g>
<g transform="translate(462,880) scale(3.6666666666667)"><rect width="6" height="6"/></g>
<g transform="translate(506,880) scale(3.6666666666667)"><rect width="6" height="6"/></g>
<g transform="translate(550,880) scale(3.6666666666667)"><rect width="6" height="6"/></g>
<g transform="translate(594,880) scale(3.6666666666667)"><rect width="6" height="6"/></g>
<g transform="translate(616,880) scale(3.6666666666667)"><rect width="6" height="6"/></g>
<g transform="translate(638,880) scale(3.6666666666667)"><rect width="6" height="6"/></g>
<g transform="translate(660,880) scale(3.6666666666667)"><rect width="6" height="6"/></g>
<g transform="translate(704,880) scale(3.6666666666667)"><rect width="6" height="6"/></g>
<g transform="translate(748,880) scale(3.6666666666667)"><rect width="6" height="6"/></g>
<g transform="translate(770,880) scale(3.6666666666667)"><rect width="6" height="6"/></g>
<g transform="translate(792,880) scale(3.6666666666667)"><rect width="6" height="6"/></g>
<g transform="translate(814,880) scale(3.6666666666667)"><rect width="6" height="6"/></g>
<g transform="translate(836,880) scale(3.6666666666667)"><rect width="6" height="6"/></g>
<g transform="translate(858,880) scale(3.6666666666667)"><rect width="6" height="6"/></g>
<g transform="translate(880,880) scale(3.6666666666667)"><rect width="6" height="6"/></g>
<g transform="translate(902,880) scale(3.6666666666667)"><rect width="6" height="6"/></g>
<g transform="translate(264,902) scale(3.6666666666667)"><rect width="6" height="6"/></g>
<g transform="translate(396,902) scale(3.6666666666667)"><rect width="6" height="6"/></g>
<g transform="translate(418,902) scale(3.6666666666667)"><rect width="6" height="6"/></g>
<g transform="translate(462,902) scale(3.6666666666667)"><rect width="6" height="6"/></g>
<g transform="translate(506,902) scale(3.6666666666667)"><rect width="6" height="6"/></g>
<g transform="translate(528,902) scale(3.6666666666667)"><rect width="6" height="6"/></g>
<g transform="translate(550,902) scale(3.6666666666667)"><rect width="6" height="6"/></g>
<g transform="translate(594,902) scale(3.6666666666667)"><rect width="6" height="6"/></g>
<g transform="translate(704,902) scale(3.6666666666667)"><rect width="6" height="6"/></g>
<g transform="translate(748,902) scale(3.6666666666667)"><rect width="6" height="6"/></g>
<g transform="translate(770,902) scale(3.6666666666667)"><rect width="6" height="6"/></g>
<g transform="translate(792,902) scale(3.6666666666667)"><rect width="6" height="6"/></g>
<g transform="translate(836,902) scale(3.6666666666667)"><rect width="6" height="6"/></g>
<g transform="translate(858,902) scale(3.6666666666667)"><rect width="6" height="6"/></g>
<g transform="translate(902,902) scale(3.6666666666667)"><rect width="6" height="6"/></g>
<g transform="translate(242,924) scale(3.6666666666667)"><rect width="6" height="6"/></g>
<g transform="translate(264,924) scale(3.6666666666667)"><rect width="6" height="6"/></g>
<g transform="translate(330,924) scale(3.6666666666667)"><rect width="6" height="6"/></g>
<g transform="translate(352,924) scale(3.6666666666667)"><rect width="6" height="6"/></g>
<g transform="translate(374,924) scale(3.6666666666667)"><rect width="6" height="6"/></g>
<g transform="translate(462,924) scale(3.6666666666667)"><rect width="6" height="6"/></g>
<g transform="translate(484,924) scale(3.6666666666667)"><rect width="6" height="6"/></g>
<g transform="translate(506,924) scale(3.6666666666667)"><rect width="6" height="6"/></g>
<g transform="translate(528,924) scale(3.6666666666667)"><rect width="6" height="6"/></g>
<g transform="translate(550,924) scale(3.6666666666667)"><rect width="6" height="6"/></g>
<g transform="translate(572,924) scale(3.6666666666667)"><rect width="6" height="6"/></g>
<g transform="translate(594,924) scale(3.6666666666667)"><rect width="6" height="6"/></g>
<g transform="translate(638,924) scale(3.6666666666667)"><rect width="6" height="6"/></g>
<g transform="translate(682,924) scale(3.6666666666667)"><rect width="6" height="6"/></g>
<g transform="translate(726,924) scale(3.6666666666667)"><rect width="6" height="6"/></g>
<g transform="translate(814,924) scale(3.6666666666667)"><rect width="6" height="6"/></g>
<g transform="translate(836,924) scale(3.6666666666667)"><rect width="6" height="6"/></g>
<g transform="translate(858,924) scale(3.6666666666667)"><rect width="6" height="6"/></g>
<g transform="translate(880,924) scale(3.6666666666667)"><rect width="6" height="6"/></g>
</g></mask></defs>
<rect width="990" height="990" fill="#ffffff" x="0" y="0" />
<rect x="0" y="0" width="990" height="990" mask="url(#qrmask)" fill="#000000" />
<g transform="translate(44,44)"  fill="#000000"><g transform="scale(11)"><path d="M0,0v14h14V0H0z M12,12H2V2h10V12z"/></g></g>
<g transform="translate(792,44)"  fill="#000000"><g transform="scale(11)"><path d="M0,0v14h14V0H0z M12,12H2V2h10V12z"/></g></g>
<g transform="translate(44,792)"  fill="#000000"><g transform="scale(11)"><path d="M0,0v14h14V0H0z M12,12H2V2h10V12z"/></g></g>
<g transform="translate(88,88)"  fill="#000000"><g transform="scale(11)"><rect width="6" height="6"/></g></g>
<g transform="translate(836,88)"  fill="#000000"><g transform="scale(11)"><rect width="6" height="6"/></g></g>
<g transform="translate(88,836)"  fill="#000000"><g transform="scale(11)"><rect width="6" height="6"/></g></g>
</svg>